<svg width="18" height="20" viewBox="0 0 18 20" fill="none" xmlns="http://www.w3.org/2000/svg">
<path d="M12.9783 11C13.6033 11 14.1533 10.59 14.4367 9.97L17.42 3.48C17.4902 3.32843 17.5263 3.15747 17.5245 2.98406C17.5228 2.81064 17.4834 2.64077 17.4101 2.49126C17.3369 2.34175 17.2324 2.21778 17.1069 2.13162C16.9815 2.04546 16.8395 2.00009 16.695 2H4.36167L3.57833 0H0.853333V2H2.52L5.52 9.59L4.395 12.03C3.78667 13.37 4.58667 15 5.85333 15H15.8533V13H5.85333L6.77 11H12.9783ZM5.15333 4H15.2783L12.9783 9H7.12833L5.15333 4ZM5.85333 16C4.93667 16 4.195 16.9 4.195 18C4.195 19.1 4.93667 20 5.85333 20C6.77 20 7.52 19.1 7.52 18C7.52 16.9 6.77 16 5.85333 16ZM14.1867 16C13.27 16 12.5283 16.9 12.5283 18C12.5283 19.1 13.27 20 14.1867 20C15.1033 20 15.8533 19.1 15.8533 18C15.8533 16.9 15.1033 16 14.1867 16Z" fill="#2D2F31"/>
</svg>
