<svg width="18" height="18" viewBox="0 0 18 18" fill="none" xmlns="http://www.w3.org/2000/svg">
<path d="M12.54 11H11.75L11.47 10.73C12.4839 9.55402 13.0411 8.0527 13.04 6.5C13.04 5.21442 12.6588 3.95772 11.9446 2.8888C11.2303 1.81988 10.2152 0.986756 9.02745 0.494786C7.83973 0.00281635 6.5328 -0.125905 5.27192 0.124899C4.01105 0.375703 2.85286 0.994767 1.94382 1.90381C1.03478 2.81285 0.415711 3.97104 0.164907 5.23192C-0.0858968 6.49279 0.0428249 7.79973 0.534795 8.98744C1.02676 10.1752 1.85989 11.1903 2.92881 11.9046C3.99772 12.6188 5.25443 13 6.54001 13C8.15001 13 9.63001 12.41 10.77 11.43L11.04 11.71V12.5L16.04 17.49L17.53 16L12.54 11ZM6.54001 11C4.05001 11 2.04001 8.99 2.04001 6.5C2.04001 4.01 4.05001 2 6.54001 2C9.03001 2 11.04 4.01 11.04 6.5C11.04 8.99 9.03001 11 6.54001 11Z" fill="#2D2F31"/>
</svg>
