<svg width="16" height="13" viewBox="0 0 16 13" fill="none" xmlns="http://www.w3.org/2000/svg">
<path d="M14 0.0561523H2.00002C1.26002 0.0561523 0.666687 0.649371 0.666687 1.38923V9.38768C0.666687 9.74123 0.807163 10.0803 1.05721 10.3303C1.30726 10.5803 1.6464 10.7208 2.00002 10.7208H5.33335V12.0538H10.6667V10.7208H14C14.7334 10.7208 15.3267 10.1209 15.3267 9.38768L15.3334 1.38923C15.3334 1.03567 15.1929 0.696601 14.9428 0.446601C14.6928 0.196601 14.3536 0.0561523 14 0.0561523ZM14 9.38768H2.00002V1.38923H14V9.38768ZM10.6667 5.38845L6.00002 8.0546V2.7223L10.6667 5.38845Z" fill="#2D2F31"/>
</svg>
